<svg xmlns="http://www.w3.org/2000/svg" width="1116.606" height="612.147">
   <path fill="#fff" d="M0 0h1116.606v612.147H0z" />
   <path
      d="M274.13 483.317c-.742-1.68 1.397-2.928 11.045-6.443 4.677-1.704 9.804-3.777 11.392-4.606 1.588-.83 3.183-1.468 3.544-1.418.36.05 2.271-.822 4.245-1.937 1.974-1.116 3.924-1.982 4.333-1.925.41.057 2.04-.554 3.625-1.355 1.584-.802 7.426-3.12 12.981-5.151 5.555-2.032 12.65-4.647 15.765-5.81l5.665-2.116-3.665-4.18c-3.609-4.117-3.644-4.252-2.308-8.9 2.13-7.41 4.439-12.176 6.928-14.297 3.046-2.597 1.524-2.676-2.94-.154-1.974 1.115-3.873 1.989-4.22 1.941-.645-.089-10.312 4.542-11.347 5.436-.58.5-6.884 3.517-11.98 5.732-3.602 1.565-11.5.971-13.304-1-1.58-1.728-4.907-1.611-11.26.395-2.323.733-9.126 2.301-15.12 3.484-5.993 1.184-12.819 2.914-15.169 3.847-9.039 3.587-19.64 3.331-19.116-.461.205-1.484 1.855-2.178 7.502-3.158 3.982-.69 10.709-2.183 14.948-3.316 4.24-1.133 8.132-2.002 8.65-1.93.519.072 2.929-.452 5.356-1.164 2.428-.711 10.084-2.877 17.014-4.813 8.063-2.252 13.682-4.449 15.606-6.1 1.653-1.418 5.336-3.418 8.185-4.444 2.848-1.026 6.174-2.493 7.39-3.26 1.217-.768 5.349-2.727 9.182-4.353 3.834-1.626 11.069-4.918 16.077-7.316 11.535-5.521 11.279-5.405 18.924-8.556l8.256-3.402c12.83-5.29 21.846-8.829 27.524-10.803 3.79-1.318 7.638-2.858 8.548-3.421.91-.564 3.573-1.745 5.915-2.626 2.342-.88 6.192-2.439 8.554-3.462 2.362-1.024 5.216-1.742 6.34-1.596 2.193.285 12.447-2.718 15.19-4.448.912-.576 3.032-1.18 4.711-1.344 7.336-.713 21.982-6.247 38.534-14.557 2.484-1.247 4.733-2.238 4.998-2.201.264.037 2.926-1.13 5.914-2.592 3.379-1.654 6.288-2.402 7.693-1.978 1.244.374 3.787.102 5.652-.606 8.872-3.365 17.412-7.058 18.02-7.793.37-.448 2.159-.92 3.975-1.05 1.816-.13 4.749-.847 6.518-1.595 1.769-.747 5.19-1.407 7.604-1.467 2.413-.06 5.663-.564 7.221-1.122 3.776-1.351 8.816-.574 10.474 1.615 1.9 2.509 1.487 3.567-1.676 4.295-1.517.349-5.225 2.097-8.24 3.884-3.015 1.788-6.103 3.165-6.863 3.06-.76-.105-1.958.865-2.664 2.155-.706 1.291-2.076 2.245-3.044 2.121-.969-.123-2.987.755-4.486 1.954-1.5 1.198-3.283 1.872-3.964 1.497-.68-.375-2.08-.043-3.11.737-1.031.78-4.073 2.155-6.761 3.055-2.688.9-3.898 1.533-2.69 1.407 2.332-.244 8.951 3.565 8.749 5.034-.067.479 1.007 2.12 2.385 3.649 2.523 2.796 4.458 11.081 3 12.845-1.435 1.736.88 2.257 3.467.78 1.427-.813 5.114-2.456 8.193-3.649 3.079-1.193 5.645-2.504 5.702-2.912.057-.409.567-.679 1.134-.6.567.077 2.353-.52 3.969-1.327a368.4 368.4 0 016.069-2.947 739.771 739.771 0 005.945-2.846c1.548-.752 3.525-1.58 4.394-1.843.87-.261 3.103-1.32 4.963-2.354 1.861-1.033 3.68-1.837 4.042-1.787.362.05 2.688-.992 5.17-2.315 2.483-1.322 4.911-2.35 5.397-2.283.486.067 1.486-.266 2.222-.74 5.55-3.577 27.784-14.21 33.192-15.873.87-.267 3.8-1.746 6.51-3.287 2.712-1.54 7.103-3.734 9.76-4.874 2.655-1.141 7.625-3.658 11.042-5.594 3.418-1.935 6.694-3.453 7.28-3.372.586.081 1.127-.298 1.203-.843.075-.545.745-.907 1.489-.804.744.103 2.654-.575 4.246-1.506 1.591-.93 2.862-1.462 2.823-1.181-.04.281 1.563-.632 3.561-2.03 1.997-1.398 5.8-3.443 8.451-4.545 2.65-1.101 7.535-3.574 10.854-5.495 3.319-1.92 6.385-3.444 6.813-3.385.823.113 12.083-6.112 20.453-11.306 2.733-1.696 6.952-3.767 9.376-4.603 2.424-.835 4.61-1.859 4.857-2.275.846-1.422 22.16-13.292 23.652-13.171 1.098.089 8.378-4.761 7.951-5.297-.207-.26-9.383-2.004-20.392-3.874-14.333-2.436-21.245-3.226-24.348-2.784-2.383.339-9.396-.05-15.585-.864l-11.252-1.48-.152 6.036c-.083 3.32-.078 7.253.01 8.74.126 2.1-.44 2.99-2.521 3.978-3.797 1.8-6.727-.34-9.428-6.885-1.193-2.892-2.47-5.3-2.837-5.35-.367-.05-1.297-2.791-2.067-6.09-.77-3.299-1.787-7.641-2.26-9.65-.472-2.008-.992-4.579-1.154-5.712-.163-1.132-.968-3.234-1.79-4.67l-1.493-2.609-3.385 3.34c-5.612 5.535-18.486 14.348-24.223 16.582-4.569 1.779-18.374-.05-21.37-2.833-2.008-1.864-2.59-1.766-15.654 2.633-9.648 3.25-14.157 5.308-15.605 7.125-1.658 2.08-2.51 2.381-4.59 1.62-1.855-.678-4.599-.163-10.01 1.877-13.117 4.946-14.22 5.582-15.306 8.827-1.373 4.108-8.162 7.562-13.659 6.95-2.584-.289-4.29-1.024-4.748-2.047-.616-1.38-1.329-1.387-5.246-.052-2.493.85-7.389 2.494-10.88 3.655-5.893 1.959-17.578 6.115-39.812 14.161a7585.185 7585.185 0 01-22.837 8.202c-7.593 2.713-14.944 5.44-16.337 6.06-1.393.619-7.634 3.045-13.868 5.39-6.235 2.345-17 6.495-23.922 9.223-6.922 2.727-12.735 4.937-12.918 4.912-.183-.025-8.164 3.005-17.737 6.733-9.572 3.728-25.056 9.36-34.41 12.514-9.354 3.155-16.074 5.558-14.933 5.341 1.14-.216 3.447-.475 5.126-.573 1.68-.1 6.055-1.052 9.724-2.12 3.669-1.066 9.608-2.206 13.199-2.533 5.789-.526 15.856-2.17 40.206-6.566 3.986-.72 9.572-1.7 12.415-2.18a245.464 245.464 0 009.852-1.9c2.577-.568 8.613-1.51 13.413-2.093 4.8-.584 10.133-1.372 11.85-1.75 1.719-.38 5.898-1.038 9.288-1.464 3.39-.425 6.984-1.07 7.987-1.434 1.003-.363 4.967-1.11 8.81-1.658 3.842-.549 10.271-1.76 14.287-2.69 4.015-.931 9.163-2.03 11.441-2.443 2.278-.413 11.623-2.293 20.767-4.177 9.144-1.885 17.8-3.62 19.237-3.855 1.436-.236 4.51-1.088 6.829-1.894 2.32-.806 6.294-1.724 8.833-2.04 4.44-.552 19.954-4.782 38.807-10.58 24.175-7.434 72.495-19.826 79.652-20.427 4.552-.382 7.464 1.62 6.061 4.166-.907 1.646-15.024 6.622-17.726 6.25-.86-.12-2.04.116-2.624.522-.584.406-3.74 1.321-7.015 2.034-3.274.713-8.235 2.095-11.024 3.071-9.73 3.408-31.4 9.136-41.678 11.018-10.116 1.852-12.45 2.425-24.75 6.075-3.292.977-6.262 1.738-6.6 1.691-.338-.047-5.665 1.314-11.839 3.024-16.921 4.685-18.447 5.15-20.226 6.156-.903.51-3.523 1.386-5.821 1.946-2.298.56-8.737 2.255-14.31 3.766-5.57 1.51-10.46 2.702-10.863 2.646-.78-.108-31.359 8.632-44.604 12.749-4.351 1.352-15.98 4.97-25.843 8.04-26.202 8.156-31.075 9.608-31.882 9.496-.4-.055-2.937.712-5.638 1.704-2.702.992-6.964 2.279-9.473 2.86-6.707 1.554-27.839 8.132-59.501 18.522-4.673 1.533-8.951 2.725-9.506 2.648-.555-.077-3.303.907-6.106 2.185-2.803 1.279-5.603 2.255-6.222 2.17-.62-.086-4.249.815-8.065 2.002-3.817 1.187-7.884 2.414-9.037 2.726-3.813 1.032-18.753 5.64-32.687 10.08-20.253 6.455-22.662 7.146-28.905 8.288-3.133.573-7.626 2.034-9.985 3.247-2.36 1.213-5.046 2.102-5.97 1.974-.924-.127-2.007.362-2.406 1.087-.4.725-2.167 1.432-3.927 1.572-1.76.139-4.481.712-6.048 1.272-3.413 1.221-6.375.967-6.168-.53.082-.596 1.068-1.193 2.19-1.327 1.123-.133 1.883-.603 1.688-1.043-.376-.85 1.516-1.56 14.885-5.573 14.26-4.282 44.42-14.778 44.893-15.623.246-.44 1.084-.712 1.863-.604.78.107 2.248-.109 3.263-.48 5.497-2.01 18.345-5.62 20.877-5.865 1.609-.156 3.667-.721 4.573-1.257.907-.535 5.685-2.238 10.618-3.783a7958.9 7958.9 0 0019.322-6.09c5.694-1.804 10.642-3.24 10.996-3.191.354.049 3.992-.993 8.085-2.314a4200.462 4200.462 0 0117.472-5.583c5.516-1.748 18.351-5.87 28.522-9.16 10.17-3.29 19.652-6.16 21.07-6.377 1.418-.218 4.948-1.103 7.843-1.97 2.896-.865 8.583-2.57 12.638-3.79 4.055-1.22 15.767-4.65 26.027-7.623 10.26-2.973 20.448-6.021 22.64-6.773 2.191-.752 6.742-2.21 10.112-3.24 3.37-1.029 5.927-2.136 5.682-2.46-.245-.323-3.378-.048-6.963.611-12.646 2.325-29.764 5.169-35.132 5.836-5.098.633-14.24 2.282-22.557 4.069-2.003.43-7.34 1.249-11.861 1.82-4.52.572-10.339 1.585-12.93 2.252-2.59.668-10.283 2.093-17.094 3.167-6.81 1.074-14.485 2.372-17.054 2.883-2.57.511-6.758 1.237-9.308 1.612-7.456 1.097-28.194 5.594-29.536 6.405-.678.409-4.234 1.102-7.903 1.54-3.67.438-7.615 1.042-8.767 1.343-1.151.3-3.375.646-4.941.766-1.566.121-6.267 1.266-10.446 2.544-4.18 1.278-9.443 2.649-11.697 3.046-2.254.397-6.262 1.457-8.906 2.355-2.645.898-6.076 1.77-7.626 1.936-2.393.258-2.776-.01-2.535-1.746.393-2.849 4.455-5.444 8.774-5.606 4.781-.18 10.224-1.815 14.257-4.283 3.274-2.004 21.927-8.279 23.83-8.016.558.077 5.21-1.453 10.339-3.4 5.128-1.948 11.935-4.354 15.126-5.346 12.4-3.857 37.56-12.298 38.107-12.785.317-.281 2.947-1.235 5.845-2.119 2.898-.883 10.082-3.56 15.964-5.947 14.891-6.044 17.213-6.94 30.137-11.629 6.276-2.277 11.67-4.375 11.988-4.664.317-.288 3.444-1.549 6.949-2.802 18.45-6.6 27.943-10.068 30.831-11.267 1.767-.734 9.819-3.653 17.892-6.488 8.074-2.834 14.111-5.431 13.416-5.771-.695-.34-3.019-1.068-5.163-1.62-2.145-.551-5.347-1.46-7.116-2.018-1.769-.558-4.066-.634-5.105-.169-1.452.65-2.445.361-4.294-1.252-2.72-2.372-2.782-3.588-.312-6.06.946-.947 1.818-2.417 1.939-3.266.12-.849.987-2.623 1.926-3.942 2.184-3.072 6.276-11.636 12.166-25.465 2.568-6.03 5.89-13.521 7.38-16.647 1.492-3.125 3.275-7.649 3.963-10.052.688-2.404 1.87-5.875 2.626-7.714a932.83 932.83 0 002.996-7.41c1.442-3.613 1.94-4.022 4.485-3.67 5.213.72 5.571 2.388 2.717 12.637-7.952 28.56-9.441 37.357-6.712 39.644 1.444 1.21 5.85.978 12.8-.674 1.292-.307 2.302-.22 2.245.192-.242 1.758-8.954 7.477-13.14 8.626l-4.552 1.25.061 4.297c.034 2.363.976 7.944 2.093 12.401 1.954 7.794 2.118 8.06 4.28 6.94 1.236-.64 6.072-2.538 10.745-4.217 12.59-4.522 15.515-6.185 21.624-12.293l5.55-5.55-7.016-1.718c-9.742-2.386-14.732-5.328-16.74-9.868-1.419-3.209-1.43-4.666-.087-10.726 2.63-11.855 11.542-26.328 15.847-25.733.618.085 2.058-.348 3.2-.963 1.684-.908 1.884-1.427 1.06-2.754-1.14-1.84-.117-4.379 1.96-4.863.755-.176 2.24.902 3.3 2.396 1.993 2.81 4.868 3.877 6.176 2.295.412-.499.074-1-.752-1.114-3.736-.516 16.89-12.28 27.12-15.47 4.38-1.365 6.105-1.347 13.56.148 8.542 1.711 17.546 5.964 17.244 8.144-.087.63-3.524.559-8.909-.185-10.112-1.397-15.142-.798-14.955 1.78.258 3.56-1.087 18.016-2.429 26.104-2.58 15.553-3.916 26.546-3.322 27.329.325.427 5.65-.956 11.834-3.075 9.717-3.328 11.196-4.133 10.894-5.923-1.26-7.461-.563-13.652 3.022-26.83 1.018-3.74 1.684-7.964 1.482-9.386-.25-1.762.36-3.49 1.909-5.419 1.251-1.557 3.51-5.41 5.019-8.563 1.509-3.152 3.629-6.986 4.71-8.52 1.083-1.533 2.128-3.944 2.323-5.358.195-1.414 1.6-3.514 3.122-4.667 3.29-2.49 7.273-2.385 6.37.169-.343.969-1.3 1.461-2.253 1.159-2.256-.716-2.33 1.057-.128 3.1 1.708 1.586 1.695 1.846-.261 5.163-1.134 1.92-1.98 3.895-1.88 4.388.1.493 3.867-1.12 8.372-3.583 4.504-2.464 12.606-5.89 18.004-7.613 6.69-2.136 10.27-3.851 11.245-5.39.787-1.243 2.237-2.398 3.223-2.567 2.319-.398 6.7 2.378 6.464 4.095-.22 1.589 1.938 1.976 7.126 1.278 5.716-.768 10.886 1.798 15.08 7.485 1.914 2.594 3.915 6.367 4.446 8.384a340.32 340.32 0 002.22 7.907c.688 2.332 1.208 6.414 1.155 9.07-.054 2.657.077 5.226.291 5.71.4.906 21.98-4.102 26.107-6.06 1.274-.604 2.565-.77 2.868-.37.303.401 1.183.348 1.955-.117 2.22-1.338 17.017-4.618 29.964-6.642 18.853-2.947 30.912-3.457 43.344-1.832 10.25 1.34 13.691 2.682 16.547 6.453 2.018 2.664 1.608 8.5-.697 9.931-.833.517-1.982 2.461-2.553 4.32-.571 1.86-3.003 5.264-5.405 7.566-5.715 5.48-15.538 13.243-16.575 13.1-.45-.063-2.265.676-4.035 1.642-6.058 3.305-4.239.403 4.78-7.625 4.96-4.416 10.452-9.486 12.202-11.266 1.75-1.78 4.04-3.902 5.09-4.714 1.56-1.207 1.852-2.273 1.6-5.827-.262-3.709-.732-4.504-3.189-5.395-4.564-1.655-13.44-2.832-17.251-2.286-1.92.274-7.17.483-11.667.463-4.495-.02-9.8.225-11.787.545-1.988.319-6.172 1.014-9.3 1.546-3.126.53-7.767 1.243-10.313 1.582-4.974.662-22.381 4.314-27.55 5.78-9.577 2.716-25.458 7.668-26.636 8.305-.75.406-1.496 1.693-1.657 2.86-.487 3.527-9.828 15.506-13.8 17.698-1.053.58-2.029 1.89-2.17 2.913-.468 3.389 7.572 5.523 21.494 5.705 8.104.105 13.803.816 23.818 2.968 7.24 1.557 18.097 3.538 24.125 4.402 9.186 1.318 11.282 1.33 12.94.072 2.38-1.804 6.109-3.266 6.617-2.595.202.267-1.039 1.567-2.757 2.89l-3.123 2.404 2.522-.277c3.313-.364 11.538 2.89 9.41 3.723-.842.33-5.013.55-9.27.493-6.894-.095-8.482.297-14.557 3.593-3.75 2.035-8.907 5.114-11.461 6.843-7.304 4.944-10.611 6.862-11.6 6.725-1.011-.14-9.016 4.429-15.079 8.606-2.147 1.48-7.797 4.558-12.554 6.84-4.757 2.283-10.918 5.57-13.692 7.303-2.773 1.733-5.4 3.102-5.837 3.042-.437-.06-3.825 1.66-7.53 3.823-3.704 2.162-10.133 5.515-14.287 7.45a3644.961 3644.961 0 00-17.273 8.12c-5.347 2.533-10.825 5.017-12.174 5.521-1.35.505-3.781 1.67-5.405 2.59-6.032 3.416-12.962 6.936-20.297 10.309-4.15 1.908-7.802 3.68-8.115 3.938-.314.258-1.763.884-3.221 1.393-4.328 1.508-10.232 4.07-16.886 7.328-14.66 7.177-18.895 9.112-19.695 9.002-.466-.065-3.925 1.377-7.687 3.203-3.761 1.825-7.298 3.154-7.86 2.952-.56-.203-2.1.391-3.42 1.32-1.32.928-2.66 1.652-2.978 1.608-1.035-.143-7.036 3.424-7.15 4.25-.183 1.325 1.605 1.152 3.584-.347 1.02-.773 3.057-1.371 4.525-1.33 1.468.04 2.893-.378 3.166-.93.273-.553 1.137-.916 1.92-.808.783.108 5.566-1.087 10.63-2.655 12.249-3.794 14.566-4.488 20.964-6.278 2.99-.837 5.323-1.782 5.182-2.101-.14-.318.804-.497 2.1-.397 1.295.1 3.698-.602 5.34-1.562 1.64-.96 4.966-1.964 7.39-2.23 2.423-.266 5.005-1.032 5.737-1.702.733-.67 2.058-1.121 2.945-1.002.887.122 3.073-.485 4.857-1.342 1.784-.857 4.158-1.434 5.275-1.284 1.117.155 2.634-.182 3.37-.739.735-.557 2.224-1.025 3.308-1.04 1.084-.016 5.888-1.315 10.676-2.887 4.787-1.572 10.538-3.09 12.779-3.374 2.241-.284 6.741-1.345 10-2.36 3.259-1.013 6.907-1.808 8.106-1.766 1.2.042 6.374-1.243 11.499-2.854 5.124-1.611 11.134-2.924 13.353-2.917 2.22.01 4.305-.284 4.633-.648.328-.365 3.622-1.192 7.32-1.839 3.698-.646 10.207-1.842 14.465-2.658 4.257-.816 8.759-1.342 10.004-1.17 1.245.172 2.318-.08 2.384-.558.14-1.01 2.43-1.55 15.13-3.568 5.11-.811 10.231-1.716 11.382-2.01 1.151-.296 3.236-.589 4.633-.652 1.397-.063 6.482-.987 11.3-2.052 4.818-1.065 8.922-1.723 9.12-1.463.197.261 3.006-.056 6.242-.704 3.235-.649 7.058-.847 8.495-.441 1.437.405 2.588.297 2.557-.24-.06-1.05 8.766-2.448 12.448-1.972 1.227.159 2.293-.157 2.368-.702.075-.544 1.697-.775 3.604-.511 1.907.263 3.515.128 3.574-.3.128-.928 16.243-2.586 18.69-1.923.936.254 1.756.073 1.821-.402.066-.475 1.156-.968 2.423-1.095 1.267-.127 5.301-.56 8.966-.961 3.664-.401 9.4-.822 12.747-.935 3.347-.112 6.825-.46 7.728-.771.904-.312 4.369-.73 7.7-.93 3.331-.201 7.671-.538 9.643-.75 1.973-.212 7.7-.564 12.727-.784 5.028-.22 10.27-.677 11.649-1.018 1.38-.34 6.18-.565 10.669-.5 4.488.066 9.621-.183 11.407-.553 3.769-.78 7.795.752 5.129 1.952-.871.392-5.028.979-9.237 1.304-9.765.754-65.648 6.405-84.463 8.54-12.624 1.434-21.642 2.523-52.518 6.345-4.043.5-12.848 1.762-19.568 2.804-6.72 1.041-15.466 2.393-19.437 3.004-13.64 2.098-69.505 12.72-85.01 16.164-12.542 2.785-53.004 12.758-59.303 14.617a912.512 912.512 0 01-13.4 3.792c-12.708 3.49-37.32 11.313-50.68 16.11-4.382 1.573-10.802 3.657-14.268 4.63-3.465.973-7.03 2.117-7.922 2.542-.891.425-2.797 1.063-4.234 1.418-1.437.355-3.343.997-4.235 1.427-.892.43-3.509 1.286-5.815 1.904-9.33 2.5-56.784 19.265-73.228 25.871a1011.61 1011.61 0 01-13.343 5.244c-3.223 1.23-6.132 2.533-6.463 2.895-.331.363-3.948 1.879-8.037 3.37-4.089 1.49-7.696 2.962-8.016 3.269-.32.307-2.927 1.37-5.793 2.362-2.866.993-11.643 4.437-19.504 7.654-7.861 3.217-14.509 5.82-14.773 5.783-1.192-.164-19.705 7.69-19.804 8.403-.06.44-1.598.918-3.416 1.062-1.818.144-8.274 2.241-14.347 4.66-6.073 2.42-11.435 4.345-11.915 4.279-.48-.066-3.425.947-6.545 2.253-5.309 2.221-25.577 9.608-41.238 15.03-7.024 2.43-11.813 2.621-12.748.507zm87.048-43.96c3.798-2.145 5.197-5.445 2.857-6.735-1.747-.962-9.218 4.148-9.547 6.53-.354 2.564 2.37 2.647 6.69.206zm20.656-1.094c.771-.705 2.325-1.44 3.454-1.634 1.13-.194 5.878-2.03 10.554-4.08 4.675-2.05 10.287-4.28 12.47-4.953 2.182-.674 6.166-2.338 8.852-3.696 2.686-1.36 7.976-3.484 11.756-4.721 3.78-1.237 8.889-3.043 11.354-4.012 2.464-.969 7.23-2.583 10.59-3.587 3.36-1.004 6.837-2.163 7.727-2.575 1.644-.761 28.872-10.096 45.963-15.757l9.39-3.11-3.745-2.339c-4.566-2.851-5.086-5.19-2.348-10.55 3.422-6.697 3.63-12.402.364-9.966-.588.438-4.993 1.251-9.789 1.806-4.796.555-9.754 1.613-11.019 2.35-1.264.737-5.58 2.387-9.592 3.667-11.911 3.799-19.794 6.709-48.966 18.075-13.245 5.16-16.607 6.186-17.918 5.463-.628-.346-1.766.229-2.528 1.277-.762 1.048-1.842 1.843-2.4 1.766-.559-.077-3.162 1.04-5.784 2.482-13.99 7.693-18.77 9.867-22.557 10.26-3.638.378-4.177.756-4.207 2.953-.02 1.385.726 3.376 1.655 4.424 2.193 2.472 4.494 10.912 3.984 14.609-.437 3.163.564 3.838 2.74 1.848zm145.431-58.225c4.158-1.538 2.883-9.661-1.614-10.282-1.336-.185-2.057.752-2.892 3.762-1.776 6.404-.433 8.346 4.506 6.52zm-188.65-27.016c.424-.514.05-.735-.879-.519-1.807.422-2.219 1.089-.794 1.285.513.071 1.265-.274 1.673-.766zm226.557-39.614c.751-.57.268-.729-1.449-.478-1.416.207-3.083.76-3.703 1.23-.751.569-.269.728 1.448.477 1.417-.206 3.083-.76 3.704-1.23zm258.966 5.097c-.283-.375-1.133-.528-1.888-.34-.833.207-.631.474.516.68 1.039.187 1.656.035 1.372-.34zm-306.026-45.801c.004-.773-.735-4.67-1.641-8.662-.907-3.991-1.295-8.133-.863-9.204.776-1.927.766-1.929-.942-.199-.949.962-2.405 3.354-3.235 5.315-.83 1.961-1.979 3.774-2.554 4.029-1.832.81-1.545 3.502.658 6.193 3.102 3.787 8.564 5.397 8.577 2.528zm69.682-16.64c4.564-1.257 5.244-1.793 5.721-4.509.924-5.252.728-6.869-1.753-14.497-1.323-4.069-2.326-7.972-2.23-8.674.097-.702-.391-2.475-1.086-3.94-.855-1.802-.882-2.61-.083-2.499 1.137.157 2.59 2.094 5.888 7.85l1.552 2.708 2.27-11.77c1.25-6.474 2.818-14.004 3.486-16.735 1.052-4.296.978-5.01-.555-5.31-2.026-.397-14.95 3.875-15.118 4.997-.062.408-1.129 1.512-2.372 2.453-1.844 1.397-2.095 2.082-1.363 3.716.493 1.103.504 2.718.023 3.59-.778 1.412-1.2 1.257-3.846-1.407-1.634-1.646-3.62-3.082-4.414-3.192-.793-.11-1.875-.77-2.404-1.47-.714-.942-1.41-.194-2.695 2.909-.953 2.299-2.35 4.549-3.102 5-2.747 1.646-9.763 15.051-10.44 19.946-.612 4.44-.444 4.913 2.363 6.65 2.982 1.846 7.075 2.588 21.091 3.824 3.931.347 7.463 1.047 7.849 1.555.385.509-.774 2.96-2.577 5.449-1.804 2.488-2.853 4.582-2.332 4.654.521.072 3.278-.512 6.127-1.297zm22.484-4.446c-.284-.374-1.133-.528-1.888-.34-.834.207-.631.474.516.68 1.038.188 1.656.035 1.372-.34zm-94.528-17.745c-.18-.719-.482-.192-.67 1.17-.189 1.362-.04 1.95.328 1.307.369-.643.523-1.758.342-2.477zm113.409 10.88c.424-.514.05-.735-.879-.519-1.807.422-2.219 1.088-.794 1.285.513.071 1.265-.274 1.673-.767zm24.626-1.595c2.414-.718 5.026-2.18 5.804-3.251 1.382-1.901 1.335-1.925-2.049-1.026-1.904.506-5.852 1.773-8.772 2.816-5.014 1.79-5.144 1.92-2.34 2.33 1.632.24 4.943-.151 7.357-.87zm-8.242-6.34c3.971-1.166 9.604-2.886 12.517-3.823 2.914-.936 5.62-1.658 6.014-1.603.395.054 3.431-1.23 6.749-2.854l6.031-2.952-4.14-1.522c-7.125-2.62-14.798-3.308-19.085-1.709-2.148.802-3.947 1.759-3.998 2.128-.05.369-2.735 1.716-5.965 2.993-4.403 1.74-5.947 2.879-6.166 4.545-.3 2.265.067 6.815.554 6.882.148.02 3.518-.918 7.489-2.084zm51.453-.798c.52-3.77.669-7.218.333-7.661-.336-.444-1.996-.445-3.688 0-2.716.71-3.03 1.136-2.672 3.639.416 2.912 3.707 10.655 4.589 10.798.271.047.918-3.004 1.438-6.774zm-141.754-15.176c.117-.849-.271-1.33-.862-1.068-.592.261-1.133.894-1.204 1.407-.071.513.317.994.862 1.069.544.075 1.086-.558 1.204-1.408zm156.342 5.391c2.301-3.901 2.055-4.758-1.04-3.614-1.483.549-2.353 1.794-2.624 3.757-.554 4.009 1.256 3.938 3.664-.143zm-75.973-9.878c.075-.545-.06-1.018-.3-1.051-.24-.033-.774.347-1.186.845-.412.499-.277.972.3 1.051.577.08 1.111-.3 1.186-.845zm10.655-.92c5.444-3.877 5.593-5.922.482-6.628-3.658-.505-3.992-.338-4.352 2.175-.215 1.498-.797 3.688-1.295 4.869-1.284 3.047.506 2.903 5.165-.416zm34.18 2.317c-.764-8.71.639-17.985 3.924-25.958 1.832-4.447 3.712-8.267 4.178-8.49 1.665-.798 3.707-4.435 3.35-5.966-.547-2.342-2.707-3.128-4.383-1.596-.817.748-4.183 2.676-7.48 4.284-12.344 6.023-15.861 7.925-19.677 10.64a235.555 235.555 0 01-8.27 5.558c-4.72 3.007-7.923 6.799-7.174 8.494.26.587 1.906.977 3.66.868 1.754-.11 4.488-.286 6.075-.394 1.624-.11 3.888.537 5.18 1.473 1.991 1.447 2.174 2.222 1.38 5.834l-.917 4.164 8.38 1.49c4.608.82 9.198 1.697 10.2 1.95 1.51.38 1.779-.02 1.574-2.351zm12.628 3.057c2.084-.551 3.73-1.665 3.862-2.61.125-.908-.247-6.547-.827-12.532-.58-5.986-1.133-11.916-1.228-13.178-.095-1.263-.579-2.351-1.075-2.42-1.508-.208-5.442 9.788-6.302 16.014-.708 5.127.286 15.459 1.503 15.627.238.033 2.069-.373 4.067-.901zm21.196-5.694c3.065-1.333 3.56-2.034 4.063-5.744 1.67-12.355-4.853-30.718-11.226-31.598-4.733-.654-5.342 1.515-3.482 12.413.943 5.53 2.24 13.65 2.883 18.041 1.285 8.795 1.974 9.406 7.762 6.888zM179.694 434.155c-.97-.821-.884-1.095.447-1.405 1.045-.244 1.578.149 1.45 1.069-.232 1.684-.292 1.694-1.897.336zm11.071-4.66c-.263-.596.248-1.206 1.137-1.357l3.167-.534c1.98-.33 1.89.189-.33 1.87-2.047 1.55-3.295 1.556-3.973.021zm-16.16-66.15c-3.605-1.74-3.287-1.033-3.786-8.432-.267-3.97-.01-7.055.674-8.002.61-.848 1.173-3.95 1.253-6.894.156-5.725-.327-7.827-.895-3.897-.255 1.766-.525 1.999-1.03.891-.519-1.142-1.459-.579-3.934 2.358-3.227 3.829-3.285 3.848-7.74 2.598-2.47-.692-4.813-1.686-5.208-2.208-1.347-1.778-2.038-11.298-.884-12.173.71-.537.671-2.03-.108-4.231-1.216-3.438-.45-6.802 1.233-5.411.501.415 1.039-.164 1.194-1.286.159-1.152-.365-2.129-1.205-2.245-.924-.127-1.356-1.14-1.143-2.681.188-1.362-.013-2.526-.447-2.586-.434-.06-.148-3.768.635-8.24.783-4.473 1.23-8.84.99-9.706-.377-1.374.172-6.891 3.279-32.923.484-4.05.21-6.163-1.028-7.923-1.82-2.588-2.006-4.547-.412-4.327.545.075 1.114-.755 1.264-1.845.15-1.09-.232-1.937-.85-1.884-.619.053-1.097-1.447-1.063-3.335.034-1.888-.34-4.078-.83-4.868-.51-.822-.423-2.794.202-4.608.811-2.353.773-2.825-.148-1.828-.682.739-1.178.84-1.101.224.162-1.31 3.494-3.593 3.363-2.307-.049.478.554.232 1.338-.546 3.144-3.121 8.442-4.053 14.915-2.624 3.408.753 6.495 1.008 6.86.566.365-.441.082-.9-.628-1.021-1.661-.28 6.59-3.087 8.36-2.843 2.14.295 16.993-3.905 17.122-4.842.065-.47.761-.764 1.548-.656.786.109 2.188-.62 3.116-1.62 1.135-1.222 3.533-1.86 7.333-1.952 3.106-.075 6.854-.709 8.33-1.408 2.892-1.372 12.827-1.96 19.864-1.176 5.159.575 7.103 3.07 4.353 5.585-.907.83-1.753 2.21-1.88 3.069-.22 1.49-2.081 1.951-19.14 4.749l-4.437.728-2.12 12.326c-1.167 6.779-3.066 15.375-4.22 19.102-1.155 3.727-2.741 10.095-3.526 14.15-1.717 8.87-4.4 16.293-6.173 17.074-1.105.487-4.203 8.198-10.276 25.577-.74 2.119-2.875 7.957-4.743 12.973-9.422 25.297-10.783 29.805-9.072 30.042.372.05 5.693-1.714 11.824-3.924 7.152-2.576 12.902-3.984 16.041-3.926 2.691.05 7.176-.497 9.967-1.214 7.906-2.031 10.026.576 4.512 5.55-2.89 2.607-9.269 5.119-15.56 6.126-1.988.318-8.42 2.492-14.296 4.83-11.237 4.47-17.079 5.299-21.686 3.074zm-1.057-32.09c.073-.529.808-.588 1.634-.133 2.088 1.15 3.752-1.158 2.258-3.13-.662-.875-1.146-2.004-1.076-2.51.188-1.364 1.904-.873 2.192.628.137.713.435-.477.662-2.645.271-2.596 1.1-4.462 2.43-5.469 1.11-.84 2.19-2.776 2.4-4.302.211-1.525.847-3.14 1.412-3.59 1.467-1.165 4.288-8.087 3.078-7.552-.546.24-1.108 1.277-1.25 2.303-.141 1.025-.74 2.078-1.332 2.34-1.39.614-1.192-.612.691-4.296.835-1.633 1.886-2.664 2.336-2.292.7.578 2.03-4.069 1.922-6.716-.018-.478.454-1.32 1.052-1.874.597-.553 1.81-3.631 2.695-6.84 1.612-5.849 1.868-6.664 2.507-7.982.189-.39.333-1.07.32-1.511-.012-.44.566-1.61 1.285-2.599.719-.988.933-1.85.476-1.912-2.919-.403-20.699 10.279-23.483 14.107-.789 1.086-1.134 6.199-1.04 15.394.188 18.188-1.286 28.633-3.754 26.593-1.133-.937-1.137.085-.01 2.601 1.013 2.264 2.372 2.99 2.594 1.386zm16.12-68.906c2.997-1.427 7.45-3.29 9.894-4.14 4.327-1.504 4.632-1.878 6.918-8.498.32-.927.204-1.738-.257-1.802-.462-.064-.033-1.253.952-2.644 1.07-1.51 1.415-2.716.858-2.994-.513-.256-.792-1.43-.62-2.61.254-1.747.45-1.844 1.066-.525.525 1.126 1.064-.588 1.773-5.64l1.017-7.259-3.315.25c-1.823.136-6.634 1.257-10.691 2.489s-8.887 2.603-10.735 3.047c-5.896 1.415-6.139 1.994-8.177 19.507-1.025 8.798-1.696 16.373-1.493 16.835.203.461 1.942-.12 3.865-1.291 1.923-1.172 5.948-3.298 8.945-4.725zm19.345-33.235c.188-1.362.49-1.888.67-1.169.181.72.027 1.834-.342 2.477-.369.643-.516.055-.328-1.308zm-40.272 6.283c-.845-1.106-.974-1.008-.631.478.237 1.028.715 1.655 1.062 1.392.347-.263.153-1.104-.431-1.87zm.012 123.85c.206-1.148.474-1.35.68-.516.188.754.035 1.604-.34 1.888-.374.283-.528-.334-.34-1.372zm63.654-27.917c-3.777-2.285-3.854-4.624-.724-21.878 1.857-10.239 3.328-16.178 3.983-16.087.643.089.649-.373.015-1.21-.563-.744-.806-2.48-.54-3.86.45-2.333.492-2.348.605-.204.214 4.062 2.094 1.592 2.832-3.721.39-2.829 1.879-9.07 3.302-13.87 1.423-4.8 2.724-9.618 2.89-10.705.167-1.088.873-3.654 1.571-5.704 1.185-3.479 1.125-3.702-.89-3.355-3.227.554-4.266-2.997-1.869-6.386 1.19-1.68 1.54-2.975 1.001-3.687-.457-.604-.72-1.9-.585-2.88.136-.982-.2-1.846-.744-1.92-.545-.076-.898-.806-.785-1.623.113-.818.592-1.32 1.066-1.115 1.645.709 8.004-6.896 7.87-9.41-.116-2.17-.066-2.196.54-.28.367 1.16.787 1.9.932 1.642.638-1.128 1.65-4.935 3.543-13.32 1.116-4.941 2.34-9.22 2.72-9.51.381-.287 2.413-.564 4.515-.614 4.724-.111 6.233 2.087 5.465 7.962l-.525 4.025 6.1-4.962c3.355-2.73 6.525-4.904 7.043-4.832.518.072 1.872-.65 3.009-1.603 1.519-1.275 3.324-1.56 6.815-1.078 4.198.58 4.98 1.068 6.74 4.211 2.641 4.717 3.136 10.56 1.45 17.11-.97 3.771-1.81 5.302-2.828 5.161-1.464-.202-2.022-1.453-4.684-10.49-.81-2.748-1.816-5.045-2.236-5.103-1.355-.187-19.522 14.345-21.24 16.99-.914 1.408-2.172 3.172-2.796 3.918-.623.747-2.022 4.415-3.108 8.152a450.55 450.55 0 01-4.053 13.068c-1.143 3.451-2.63 8.812-3.304 11.913-1.123 5.156-1.064 5.6.69 5.199 1.054-.241 2.586-.94 3.404-1.552.818-.612 2.038-1.036 2.71-.944 2.281.315 7.751-3.426 7.631-5.22-.143-2.145 4.8-2.988 6.256-1.066.53.699 2.184 1.44 3.677 1.646 1.494.206 2.917.83 3.163 1.387.904 2.044-3.101 8.609-5.797 9.503-1.467.486-5.38 2.011-8.697 3.388-3.317 1.377-6.57 2.43-7.23 2.338-.66-.09-2.457.57-3.993 1.468s-3.615 1.52-4.62 1.38c-1.106-.152-2.126.606-2.578 1.916-.983 2.849-6.494 26.486-7.353 31.54-.64 3.762-.535 3.95 2.156 4.036 3.045.097 12.238-3.576 16.75-6.693 1.529-1.055 3.095-1.875 3.481-1.821.386.053 2.043-.841 3.682-1.987 2.337-1.634 2.917-2.664 2.687-4.773-.557-5.107 4.526-6.93 5.958-2.138.432 1.448 1.383 2.715 2.113 2.816 1.621.224.729 8.333-1.21 11-1.366 1.879-16.039 9.363-26.298 13.415-6.561 2.59-15.763 2.786-19.678.417zm55.412.28c-.45-.757-.99-2.535-1.197-3.952-.208-1.416-.868-3.658-1.467-4.98-.795-1.754-.65-4.88.531-11.537 5.13-28.889 7.246-40.35 9.187-49.768 1.19-5.781 2.261-11.407 2.379-12.501.116-1.094 1.746-9.955 3.62-19.69 3.648-18.961 4.708-21.422 9.327-21.66 5.145-.267 5.803 1.777 4.381 13.61-1.888 15.724-1.93 15.275 1.016 10.733 1.44-2.22 2.933-4.965 3.319-6.1.385-1.135 1.172-2.151 1.747-2.259.576-.107 1.122-.743 1.215-1.412.182-1.32 3.962-7.534 7.707-12.67 2.078-2.85 2.848-3.174 6.865-2.89 3.66.26 4.574.676 4.783 2.176.44 3.152-.676 25.195-2.071 40.902-.798 8.98-.91 14.21-.28 13.085 4.854-8.674 5.866-7.713 4.044 3.84-1.735 10.996-6.419 23.563-9.587 25.723-1.958 1.334-2.258 1.28-5.05-.912-3.884-3.051-3.993-5.126-1.488-28.3 1.123-10.394 2.212-22.458 2.42-26.81l.377-7.91-4.38 6.853c-2.408 3.77-5.997 9.356-7.975 12.414-1.978 3.058-5.44 6.991-7.694 8.74l-4.098 3.181-3.503 16.97c-1.927 9.332-4.5 24.099-5.717 32.814-1.866 13.357-2 16.257-.856 18.461.995 1.918 1.03 3.067.127 4.308-1.422 1.955-6.421 1.656-7.682-.46zm9.929-59.066c.075-.545-.347-.776-.938-.515-.592.262-1.137.921-1.212 1.466-.075.545.347.777.938.515.591-.261 1.137-.921 1.212-1.466zm57.94 49.518c-5.48-2.123-9.615-7.44-9.922-12.763-.16-2.785 1.793-16.93 4.844-35.071 5.312-31.594 6.709-42.802 5.356-42.99-.437-.06-1.271 1.072-1.853 2.515-1.324 3.284-3.035 4.887-4.938 4.624-1.128-.156-1.208-.815-.34-2.823.622-1.441 1.57-5.156 2.106-8.255.536-3.1 1.492-6.147 2.125-6.773.632-.626 1.981-2.613 2.997-4.416 2.13-3.782 6.857-9.257 8.73-10.114 2.109-.965 9.014.346 16.543 3.14 7.801 2.895 9.622 4.243 8.84 6.545-.43 1.265-2.089 1.325-9.428.34-13.888-1.862-15.07-.772-13.786 12.698.638 6.703-1.86 26.922-4.442 35.937-.657 2.293-1.183 5.16-1.17 6.373.023 2.184.066 2.194 4.767 1.163 2.609-.572 5.941-1.875 7.405-2.896 2.656-1.852 4.109-5.79 2.231-6.05-.544-.074-.836-1.25-.648-2.613.363-2.63 2.246-3.006 3.928-.786 1.3 1.717 1.25 1.778 5.02-6.294 4.883-10.453 12.9-24.098 17.454-29.706 4.146-5.106 21.951-19.629 23.758-19.38.542.076.86 1.055.704 2.176-.167 1.21.192 1.83.88 1.526.64-.283 1.047-1.583.904-2.89-.378-3.465 4.293-5.932 9.793-5.172l4.264.589.054 4.66c.039 3.359-.5 5.468-1.927 7.557-1.285 1.88-1.92 2.285-1.805 1.155.261-2.585-1.752-2.386-2.128.211-.463 3.19-2.103 4.764-4.195 4.026-1.967-.694-1.54-3.922.674-5.099.712-.378.04-.571-1.553-.447-2.78.216-3.76-1.332-1.243-1.965.719-.18.351-.496-.817-.701-1.497-.264-3.025.769-5.176 3.496-1.679 2.127-5.167 5.69-7.751 7.917-2.585 2.227-4.759 4.483-4.832 5.014-.074.53-.83 1.397-1.681 1.925-.852.529-2.016 2.127-2.589 3.552-.572 1.425-1.722 3.178-2.556 3.896-3.816 3.286-14.34 26.924-15.398 34.59-.654 4.74.107 6.57 4.506 10.826 5.056 4.893 15.25 5.154 22.695.58 8.242-5.063 13.029-9.196 12.753-11.009-.679-4.462 1.473-17.064 3.84-22.485 6.723-15.402 20.616-36.984 25.566-39.715 4.185-2.309 8.088-.339 7.817 3.946-.104 1.651-.087 4.667.039 6.701.22 3.577.145 3.67-2.29 2.847-1.386-.469-2.464-1.36-2.396-1.98.22-2.014-3.402 2.246-8.367 9.839-7.968 12.185-15.547 29.695-14.187 32.772.685 1.549 7.426-5.254 12.896-13.014 5.034-7.141 7.689-9.942 8.46-8.923.971 1.283-1.626 7.294-5.4 12.498-2.037 2.81-3.89 6.454-4.117 8.099-.26 1.887-.919 2.92-1.785 2.8-1.655-.228-4.482 2.885-5.936 6.539-.951 2.39-.722 2.87 2.202 4.594 3.887 2.294 10.462 3.27 15.148 2.249 4.758-1.037 17.514-9.96 23.262-16.271 2.66-2.922 7.048-8.634 9.75-12.694 4.065-6.107 5.062-8.441 5.774-13.513.906-6.462-1.078-14.85-4.019-16.988-4.266-3.102-14.893-2.643-18.569.802-1.32 1.237-2.256 3.653-2.744 7.076-.634 4.455-1.011 5.16-2.64 4.935-1.338-.185-2.22-1.648-2.985-4.954-1.072-4.627-1.044-4.753 1.98-9.055 1.798-2.56 4.977-5.348 7.691-6.745 3.957-2.037 5.463-2.246 10.403-1.448 4.893.79 6.392 1.536 9.792 4.868 5.722 5.607 8.08 13.22 7.197 23.237-.716 8.122-4.138 16.72-7.917 19.89-.958.804-1.836 2.145-1.952 2.98-.115.836-1.756 3.072-3.647 4.97-6.63 6.655-12.287 11.672-13.113 11.63-.459-.023-2.956 1.257-5.55 2.845-4.298 2.63-10.827 4.487-20.619 5.865-2.72.382-5.725-.177-11.634-2.166-7.453-2.509-8.136-2.592-10.58-1.284-1.437.77-2.693 1.878-2.792 2.464-.227 1.352-9.33 6.202-11.164 5.949-.755-.105-1.882.196-2.504.667-3.779 2.861-18.853 2.139-26.462-1.268l-2.367-1.06 2.269 3.6c3.508 5.568 1.937 11.84-4.544 18.152-7.302 7.109-12.6 11.053-16.581 12.344-4.688 1.52-5.465 1.49-10.378-.413zm12.547-11.088c5.69-3.872 11.4-10.05 11.771-12.735.25-1.812-5.899-14.15-7.86-15.77-.42-.348-2.806-.18-5.3.373-2.496.553-5.347.863-6.337.69-1.672-.294-1.907.627-3.296 12.897-1.057 9.338-1.163 13.747-.361 15.035 1.932 3.106 6.38 2.915 11.383-.49zm65.473-53.036c-.207-.834-.475-.632-.681.516-.187 1.038-.034 1.655.34 1.372.375-.284.528-1.134.34-1.888zm58.404-45.96c-1.194-.406-3.2-.683-4.458-.616-1.259.067-.282.399 2.17.737 2.451.339 3.48.284 2.288-.121zm-253.868 64.286c.507-.926 1.137-1.4 1.4-1.052.263.347-.152 1.104-.922 1.683-1.112.836-1.21.706-.478-.631zm237.06 30.007c-.262-.592-.004-1.01.573-.93.577.08.988.59.912 1.135-.075.545-.333.963-.573.93-.24-.033-.651-.544-.913-1.135zm364.568-57.123c-4.081-1.3-7.859-2.727-8.395-3.17-1.403-1.16-.88-3.307 1.187-4.873 1.445-1.094 3.402-1.041 10.218.279 4.637.897 9.238 1.334 10.224.969.986-.365 3.77-2.828 6.188-5.473 3.618-3.96 4.73-6.092 6.29-12.05 1.865-7.124 1.854-7.368-.693-15.17-2.189-6.701-4.547-10.564-15.244-24.967-15.87-21.368-16.703-22.992-15.66-30.547.695-5.029 1.313-6.317 4.56-9.519 2.066-2.036 4.527-3.596 5.47-3.466.943.13 3.091-.652 4.775-1.739 2.56-1.652 3.493-1.755 5.695-.629 1.883.962 2.542 2.016 2.31 3.69-.256 1.861-1.551 2.751-6.303 4.33-5.754 1.913-6.011 2.145-6.824 6.162-.465 2.295-.436 4.23.064 4.299.5.069.807.863.682 1.765-.394 2.854 8.166 16.055 21.578 33.28 4.302 5.525 6 8.939 9.338 18.784 1.702 5.018-.775 23.157-3.72 27.247-3.213 4.46-11.038 10.71-14.96 11.949-5.362 1.693-8.538 1.475-16.78-1.151zm-70.812-94.507c-1.64-1.643-1.747-4.41-.198-5.095.507-.224 1.492-2.593 2.188-5.264.697-2.671 2.149-5.867 3.226-7.103 1.202-1.378 2.034-3.72 2.152-6.057.177-3.527.403-3.807 3.02-3.746 5.832.134 6.178 2.769 2 15.239-.622 1.857-1.345 5.482-1.606 8.056-.38 3.735-.897 4.834-2.564 5.45-2.819 1.042-6.333.41-8.218-1.48z" />
   </svg>
